<?xml version="1.0" standalone="no"?>
<!DOCTYPE svg PUBLIC "-//W3C//DTD SVG 20010904//EN"
 "http://www.w3.org/TR/2001/REC-SVG-20010904/DTD/svg10.dtd">
<svg version="1.0" xmlns="http://www.w3.org/2000/svg"
 width="1092.000000pt" height="281.000000pt" viewBox="0 0 1092.000000 281.000000"
 preserveAspectRatio="xMidYMid meet">

<g transform="translate(0.000000,281.000000) scale(0.100000,-0.100000)"
fill="#000000" stroke="none">
<path d="M5375 2405 c-82 -35 -150 -68 -149 -74 1 -6 2 -15 3 -21 0 -6 24 -7
59 -4 67 7 85 -4 102 -64 13 -50 14 -1303 0 -1353 -14 -50 -38 -68 -109 -81
-48 -9 -61 -15 -61 -30 0 -17 16 -18 280 -18 268 0 280 1 280 19 0 15 -10 20
-55 26 -68 8 -103 35 -115 90 -5 22 -10 137 -10 255 0 212 0 214 19 195 47
-48 362 -462 368 -483 7 -28 -10 -49 -48 -57 -20 -5 -29 -13 -29 -26 0 -18 10
-19 270 -19 258 0 270 1 270 19 0 15 -10 20 -54 25 -102 13 -148 58 -466 460
l-133 170 39 35 c22 20 99 90 171 157 155 142 225 184 319 192 54 4 64 8 64
23 0 18 -13 19 -240 19 -233 0 -240 -1 -240 -20 0 -15 7 -20 24 -20 33 0 68
-44 57 -73 -4 -12 -93 -100 -197 -196 l-189 -175 -3 547 -2 547 -38 -1 c-21
-1 -101 -28 -187 -64z"/>
<path d="M10270 2405 c-85 -35 -155 -68 -154 -74 1 -6 2 -16 3 -21 0 -6 21 -8
54 -4 65 8 92 -4 106 -48 10 -29 21 -448 13 -448 -2 0 -16 8 -30 19 -119 83
-269 89 -419 16 -54 -27 -88 -53 -138 -107 -235 -254 -249 -663 -30 -882 164
-164 388 -174 565 -26 26 22 49 40 51 40 2 0 4 -33 4 -72 0 -66 2 -73 21 -76
11 -2 97 28 190 67 141 57 168 72 166 87 -5 26 -4 26 -52 15 -55 -12 -84 -1
-107 41 -16 31 -18 86 -21 786 l-4 752 -31 -1 c-18 0 -102 -29 -187 -64z
m-128 -618 c52 -27 69 -42 96 -87 18 -30 37 -72 43 -92 5 -21 10 -170 10 -339
l0 -302 -28 -29 c-15 -15 -49 -39 -77 -53 -160 -80 -349 37 -419 259 -32 103
-32 319 0 422 48 153 156 252 275 254 22 0 61 -13 100 -33z"/>
<path d="M3940 1909 c-43 -18 -90 -59 -110 -99 -19 -37 -20 -60 -20 -504 0
-263 4 -475 9 -489 13 -34 68 -95 102 -113 24 -12 104 -14 495 -14 461 0 466
0 505 22 46 26 87 82 100 135 12 55 11 851 -1 911 -13 60 -60 118 -114 143
-38 17 -74 19 -491 18 -271 0 -460 -4 -475 -10z m881 -45 c25 -11 52 -33 70
-57 l29 -40 0 -399 c0 -443 1 -433 -67 -485 l-36 -28 -391 -3 c-390 -2 -391
-2 -431 21 -22 12 -50 40 -62 62 -22 40 -23 44 -23 428 0 364 1 390 19 426 21
39 56 68 100 81 14 5 189 9 388 9 315 1 368 -1 404 -15z"/>
<path d="M4130 1711 c0 -5 39 -63 87 -128 171 -234 184 -254 175 -266 -5 -7
-53 -68 -108 -135 -141 -176 -157 -199 -150 -211 5 -8 93 -11 277 -11 148 0
269 1 269 3 9 41 24 229 20 232 -4 2 -16 -16 -28 -40 -36 -74 -52 -80 -244
-83 -92 -2 -168 -1 -168 3 0 3 54 73 119 155 l120 148 -110 146 -109 146 152
0 c174 0 183 -4 217 -80 l21 -45 0 35 c0 19 -3 59 -6 88 l-7 52 -263 0 c-153
0 -264 -4 -264 -9z"/>
<path d="M515 1889 c-134 -20 -260 -113 -318 -236 -27 -60 -31 -78 -31 -153 0
-113 28 -184 98 -255 28 -28 62 -58 76 -67 l25 -16 -78 -80 c-130 -135 -141
-215 -38 -286 l40 -28 -85 -97 c-99 -112 -139 -184 -129 -231 9 -43 56 -93
118 -129 210 -119 548 -113 757 14 72 44 175 151 199 208 72 169 -2 317 -183
364 -28 7 -157 18 -286 24 -260 11 -303 18 -326 54 -21 32 -6 76 42 126 34 35
38 36 72 26 59 -17 219 -13 287 7 192 57 302 222 275 413 -5 36 -20 88 -33
114 l-24 48 106 3 106 3 3 38 c5 64 -2 67 -163 67 -137 0 -145 1 -206 30 -35
16 -95 34 -134 40 -79 11 -87 11 -170 -1z m148 -72 c47 -20 101 -86 127 -153
28 -72 39 -247 21 -321 -47 -187 -262 -228 -368 -70 -78 116 -93 328 -32 453
42 89 158 130 252 91z m45 -1086 c235 -11 308 -22 346 -52 81 -64 2 -215 -142
-269 -153 -58 -431 -46 -571 25 -101 51 -117 117 -55 221 59 99 64 102 140 93
36 -5 163 -13 282 -18z"/>
<path d="M1668 1832 c-144 -58 -168 -70 -168 -89 0 -20 4 -21 58 -16 73 7 98
-6 112 -55 6 -22 10 -182 10 -408 0 -369 0 -371 -23 -405 -19 -28 -33 -37 -85
-49 -47 -11 -62 -19 -62 -32 0 -17 20 -18 280 -18 270 0 280 1 280 19 0 16 -9
21 -45 27 -25 3 -60 16 -78 28 -60 41 -62 50 -65 393 l-3 313 28 52 c35 66
103 138 130 138 11 0 44 -16 73 -36 91 -62 161 -55 197 20 44 93 -57 200 -168
180 -77 -14 -167 -91 -228 -194 l-26 -45 -3 123 c-3 119 -3 122 -25 121 -12 0
-97 -30 -189 -67z"/>
<path d="M3065 1889 c-251 -42 -407 -243 -422 -544 -10 -199 36 -353 139 -461
92 -98 164 -137 283 -154 136 -21 259 24 359 131 112 119 189 320 122 319 -6
0 -24 -28 -40 -62 -59 -127 -160 -192 -296 -191 -211 2 -371 184 -396 451 l-7
72 387 0 c212 0 386 3 386 6 0 3 -5 38 -11 77 -29 190 -161 327 -345 357 -67
11 -89 11 -159 -1z m121 -107 c78 -40 121 -107 131 -202 l6 -60 -257 0 -256 0
6 28 c30 135 96 218 204 253 38 13 123 3 166 -19z"/>
<path d="M7353 1890 c-91 -19 -179 -85 -250 -187 l-38 -56 -3 122 c-3 116 -3
121 -24 121 -12 0 -97 -30 -190 -66 -133 -52 -168 -70 -168 -85 0 -16 6 -18
63 -13 58 6 64 4 87 -21 l25 -27 3 -642 c2 -501 0 -651 -10 -681 -16 -47 -56
-73 -127 -82 -41 -5 -51 -9 -51 -24 0 -18 14 -19 290 -19 280 0 290 1 290 19
0 16 -10 21 -54 26 -74 9 -112 35 -125 82 -6 21 -11 132 -11 250 l0 212 51
-34 c66 -45 115 -58 219 -57 141 1 239 47 339 158 210 236 213 676 6 893 -87
91 -210 133 -322 111z m65 -196 c121 -60 192 -227 192 -454 0 -284 -119 -451
-310 -438 -101 8 -171 52 -216 138 -17 31 -19 65 -22 330 l-4 295 61 58 c105
100 197 122 299 71z"/>
<path d="M8218 1880 c-52 -16 -98 -52 -126 -98 l-27 -47 0 -465 c0 -460 0
-465 22 -506 27 -51 72 -90 121 -104 25 -8 183 -10 482 -8 509 3 496 1 558 92
l32 48 0 469 c0 509 0 507 -56 562 -64 64 -46 62 -534 64 -245 1 -457 -2 -472
-7z m882 -62 c18 -13 43 -36 54 -51 21 -28 21 -38 21 -437 0 -399 0 -409 -21
-437 -11 -15 -36 -38 -54 -51 -33 -22 -35 -22 -425 -22 -391 0 -392 0 -426 23
-18 12 -44 38 -56 56 -23 34 -23 35 -23 431 0 396 0 397 23 431 12 18 38 44
56 56 34 23 35 23 426 23 390 0 392 0 425 -22z"/>
<path d="M8549 1680 c-98 -17 -165 -69 -207 -160 -21 -45 -27 -74 -30 -166 -9
-219 62 -336 213 -351 99 -10 174 32 247 141 l42 61 8 -35 c4 -19 16 -61 25
-92 l16 -58 84 0 c67 0 83 3 83 15 0 8 -6 15 -14 15 -21 0 -40 36 -74 140 -49
152 -49 155 -6 256 21 49 50 113 66 142 42 78 39 84 -33 80 l-62 -3 -23 -79
c-13 -44 -25 -81 -28 -83 -2 -2 -16 22 -31 52 -31 64 -87 111 -144 120 -72 12
-87 13 -132 5z m145 -74 c36 -23 70 -96 91 -192 l17 -81 -36 -78 c-20 -43 -48
-94 -62 -113 -75 -98 -186 -95 -230 6 -24 56 -34 171 -24 264 17 148 78 224
172 215 26 -2 58 -11 72 -21z"/>
</g>
</svg>
